#!OML:ASF I:\golf\golf\golf 2\Subject 1\2002-09-07\Subject1.ASF
:FULLY-SPECIFIED
:DEGREES
331
root -6.53579 18.0323 -3.99238 -165.483 -4.72671 -173.684
lowerback -9.17386 15.3687 13.4587
upperback -14.1975 17.3952 2.26882
thorax -7.33623 6.37687 -3.36945
lowerneck -5.45783 -19.7774 -5.08131
upperneck 12.3791 -27.2582 1.90964
head 5.55784 -13.6256 -0.629667
rclavicle 1.04163e-013 1.19271e-013
rhumerus 107.41 30.6246 -48.5119
rradius 85.9281
rwrist 14.4948
rhand -50.5861 42.3909
rfingers 7.12502
rthumb -23.1515 13.7621
lclavicle 1.04163e-013 1.19271e-013
lhumerus 67.0649 22.922 69.6923
lradius 97.6108
lwrist 1.25589
lhand -37.2314 13.1329
lfingers 7.12502
lthumb -190.298 -137.139
rfemur 12.1267 -8.2539 22.3114
rtibia 18.0998
rfoot 31.1939 -24.201
rtoes 19.1732
lfemur -27.3031 -16.3386 -13.1334
ltibia 23.5285
lfoot 53.9913 -33.9778
ltoes 47.4231
332
root -6.5376 18.0316 -4.00109 -165.33 -4.64089 -173.828
lowerback -9.18656 15.364 13.3302
upperback -14.1916 17.4 2.20911
thorax -7.3338 6.3925 -3.37006
lowerneck -5.87312 -19.6952 -4.96588
upperneck 12.6019 -27.0847 1.62485
head 5.63284 -13.5381 -0.754992
rclavicle 4.45278e-014 -3.02153e-014
rhumerus 107.111 30.562 -48.7658
rradius 85.6718
rwrist 14.1163
rhand -50.8035 42.3822
rfingers 7.12502
rthumb -23.3601 13.7797
lclavicle 4.45278e-014 -3.02153e-014
lhumerus 66.8855 22.9397 69.1318
lradius 97.0937
lwrist 1.05289
lhand -37.858 13.6353
lfingers 7.12502
lthumb -190.902 -136.668
rfemur 11.9572 -8.21454 22.2298
rtibia 18.185
rfoot 30.9819 -24.6466
rtoes 19.3792
lfemur -27.3703 -16.1853 -13.3028
ltibia 23.4369
lfoot 54.1557 -33.7925
ltoes 47.5446
333
root -6.54005 18.0327 -4.00855 -165.203 -4.54855 -173.971
lowerback -9.17965 15.3638 13.2146
upperback -14.1969 17.4139 2.14324
thorax -7.34856 6.40896 -3.38679
lowerneck -6.09568 -19.6309 -4.82061
upperneck 12.7577 -26.9629 1.38786
head 5.66147 -13.4808 -0.850101
rclavicle 8.18993e-014 -3.49861e-014
rhumerus 106.724 30.5153 -49.0437
rradius 85.4371
rwrist 13.5641
rhand -50.8979 42.6851
rfingers 7.12502
rthumb -23.4507 14.0942
lclavicle 8.18993e-014 -3.49861e-014
lhumerus 66.7966 22.864 68.6909
lradius 96.47
lwrist 1.03453
lhand -38.2473 14.0318
lfingers 7.12502
lthumb -191.278 -136.291
rfemur 11.826 -8.24786 22.1311
rtibia 18.2456
rfoot 30.9349 -24.8119
rtoes 19.2327
lfemur -27.4162 -16.0149 -13.4942
ltibia 23.3243
lfoot 54.2583 -33.7175
ltoes 47.3093
334
root -6.54054 18.0323 -4.01434 -165.103 -4.41671 -174.1
lowerback -9.17486 15.3833 13.1278
upperback -14.1622 17.4554 2.08271
thorax -7.3068 6.44571 -3.40204
lowerneck -6.23253 -19.5512 -4.83878
upperneck 12.8561 -26.8401 1.35221
head 5.70828 -13.4179 -0.86821
rclavicle 2.18663e-014 -4.29375e-014
rhumerus 106.174 30.3425 -49.3767
rradius 85.3967
rwrist 12.8543
rhand -50.9956 43.0104
rfingers 7.12502
rthumb -23.5444 14.4315
lclavicle 2.18663e-014 -4.29375e-014
lhumerus 66.8002 22.7793 68.3847
lradius 95.8155
lwrist 0.806254
lhand -37.8331 13.9904
lfingers 7.12502
lthumb -190.878 -136.311
rfemur 11.7631 -8.24396 22.0465
rtibia 18.2559
rfoot 30.227 -25.7066
rtoes 20.9253
lfemur -27.4342 -15.892 -13.647
ltibia 23.2312
lfoot 54.2554 -33.6347
ltoes 47.1342
335
root -6.54079 18.0324 -4.02067 -165.07 -4.25448 -174.115
lowerback -9.09877 15.404 13.168
upperback -14.0978 17.5064 2.07115
thorax -7.25226 6.47975 -3.43493
lowerneck -6.45809 -19.4412 -5.0002
upperneck 12.9574 -26.6785 1.47177
head 5.80915 -13.3267 -0.841464
rclavicle -6.0033e-014 -3.49861e-014
rhumerus 105.598 30.1027 -49.8099
rradius 85.2945
rwrist 12.2146
rhand -51.0316 43.1226
rfingers 7.12502
rthumb -23.5789 14.5481
lclavicle -6.0033e-014 -3.49861e-014
lhumerus 66.665 22.6816 67.8554
lradius 95.1747
lwrist 1.0031
lhand -37.1575 13.1272
lfingers 7.12502
lthumb -190.227 -137.141
rfemur 11.7659 -8.17754 22.058
rtibia 18.2339
rfoot 29.4431 -26.5523
rtoes 21.927
lfemur -27.3917 -15.8561 -13.6598
ltibia 23.1804
lfoot 54.0718 -33.6114
ltoes 47.1952
336
root -6.54104 18.0318 -4.02684 -165.025 -4.13092 -174.015
lowerback -9.05275 15.4375 13.3074
upperback -14.0593 17.552 2.08271
thorax -7.19484 6.49604 -3.48287
lowerneck -6.60169 -19.352 -5.05322
upperneck 12.9288 -26.5298 1.50514
head 5.82971 -13.2468 -0.82792
rclavicle -1.03368e-013 1.59028e-015
rhumerus 105.179 30.0175 -50.2022
rradius 84.8044
rwrist 11.866
rhand -51.0736 43.2206
rfingers 7.12502
rthumb -23.6192 14.6514
lclavicle -1.03368e-013 1.59028e-015
lhumerus 66.4252 22.471 67.2478
lradius 94.5177
lwrist 1.43223
lhand -37.8965 14.9246
lfingers 7.12502
lthumb -190.939 -135.38
rfemur 11.7441 -8.27106 22.1477
rtibia 18.1919
rfoot 29.5215 -26.2606
rtoes 19.8945
lfemur -27.3941 -15.8706 -13.5212
ltibia 23.1694
lfoot 53.854 -33.7122
ltoes 47.0506
337
root -6.54111 18.0297 -4.03001 -164.952 -4.0531 -173.894
lowerback -9.03166 15.4625 13.4586
upperback -14.0139 17.5793 2.10609
thorax -7.11938 6.50384 -3.51995
lowerneck -6.64619 -19.3155 -5.01692
upperneck 12.7786 -26.4424 1.46218
head 5.77544 -13.2023 -0.827573
rclavicle 1.07741e-013 5.725e-014
rhumerus 104.778 29.9056 -50.5058
rradius 84.2822
rwrist 11.5103
rhand -51.0163 43.1141
rfingers 7.12502
rthumb -23.5642 14.5378
lclavicle 1.07741e-013 5.725e-014
lhumerus 66.295 22.2638 66.8582
lradius 93.7523
lwrist 1.3564
lhand -37.9237 15.5223
lfingers 7.12502
lthumb -190.966 -134.784
rfemur 11.6934 -8.52593 22.246
rtibia 18.1484
rfoot 29.6842 -25.7252
rtoes 17.4941
lfemur -27.4607 -15.9135 -13.3285
ltibia 23.1724
lfoot 53.6822 -33.8633
ltoes 46.7989
338
root -6.54183 18.0288 -4.03134 -164.88 -3.92423 -173.851
lowerback -9.00966 15.4259 13.5068
upperback -13.9253 17.5369 2.15924
thorax -7.03944 6.49356 -3.48954
lowerneck -6.66859 -19.2193 -4.87419
upperneck 12.5671 -26.284 1.42843
head 5.68411 -13.121 -0.821057
rclavicle -6.08281e-014 -4.29375e-014
rhumerus 104.411 29.8452 -50.8467
rradius 83.875
rwrist 11.054
rhand -50.6749 42.7053
rfingers 7.12502
rthumb -23.2367 14.0872
lclavicle -6.08281e-014 -4.29375e-014
lhumerus 66.1746 22.1065 66.4256
lradius 92.9313
lwrist 1.34999
lhand -37.4472 15.4469
lfingers 7.12502
lthumb -190.506 -134.836
rfemur 11.6379 -8.69959 22.2652
rtibia 18.1518
rfoot 29.1842 -26.0967
rtoes 18.3605
lfemur -27.5133 -15.9159 -13.2552
ltibia 23.1571
lfoot 53.4489 -34.138
ltoes 46.4849
339
root -6.54285 18.0285 -4.03202 -164.811 -3.72616 -173.917
lowerback -8.98578 15.3674 13.4328
upperback -13.8398 17.4763 2.19619
thorax -6.99183 6.48397 -3.42665
lowerneck -6.73899 -19.089 -4.71696
upperneck 12.5126 -26.0988 1.37783
head 5.64603 -13.0269 -0.834227
rclavicle 7.95139e-016 1.09729e-013
rhumerus 104.103 29.982 -51.2393
rradius 83.3607
rwrist 10.7175
rhand -50.3851 42.2126
rfingers 7.12502
rthumb -22.9587 13.5597
lclavicle 7.95139e-016 1.09729e-013
lhumerus 66.0058 21.8687 65.9221
lradius 92.1153
lwrist 1.81649
lhand -37.2277 15.2235
lfingers 7.12502
lthumb -190.294 -135.048
rfemur 11.5825 -8.64142 22.2182
rtibia 18.204
rfoot 28.3406 -27.018
rtoes 20.5839
lfemur -27.5242 -15.8501 -13.3372
ltibia 23.1069
lfoot 53.3119 -34.2048
ltoes 46.3299
340
root -6.54289 18.0276 -4.02938 -164.713 -3.54819 -173.991
lowerback -8.9395 15.3437 13.358
upperback -13.805 17.4654 2.18468
thorax -6.99237 6.48974 -3.41497
lowerneck -6.85183 -19.0338 -4.77371
upperneck 12.665 -26.0263 1.37796
head 5.71764 -12.9892 -0.845112
rclavicle -1.19271e-015 -6.36111e-015
rhumerus 103.688 30.05 -51.6563
rradius 82.7839
rwrist 10.2917
rhand -50.1464 41.7914
rfingers 7.12502
rthumb -22.7296 13.1102
lclavicle -1.19271e-015 -6.36111e-015
lhumerus 65.8474 21.5354 65.4625
lradius 91.2376
lwrist 2.36813
lhand -37.1512 15.0181
lfingers 7.12502
lthumb -190.221 -135.25
rfemur 11.466 -8.59275 22.1887
rtibia 18.2637
rfoot 27.911 -27.3454
rtoes 20.0347
lfemur -27.5944 -15.8066 -13.401
ltibia 23.0473
lfoot 53.4142 -33.8531
ltoes 46.5491
341
root -6.53989 18.0253 -4.02483 -164.638 -3.37841 -174.079
lowerback -8.82216 15.3476 13.2642
upperback -13.9058 17.4953 2.1308
thorax -7.1732 6.48739 -3.46187
lowerneck -6.20782 -18.9607 -4.90616
upperneck 12.3497 -25.959 1.53944
head 5.55253 -12.9736 -0.697055
rclavicle 2.62396e-014 2.38542e-014
rhumerus 102.865 30.1061 -52.3074
rradius 82.1844
rwrist 9.78601
rhand -49.546 41.5297
rfingers 7.12502
rthumb -22.1533 12.7789
lclavicle 2.62396e-014 2.38542e-014
lhumerus 65.4333 21.0206 64.8072
lradius 90.2937
lwrist 2.79959
lhand -37.0524 14.94
lfingers 7.12502
lthumb -190.125 -135.324
rfemur 11.3816 -8.64592 22.1223
rtibia 18.2948
rfoot 27.6135 -27.4741
rtoes 19.1216
lfemur -27.6749 -15.8152 -13.4596
ltibia 23.0198
lfoot 53.51 -33.5581
ltoes 46.8125
342
root -6.54272 18.0235 -4.01825 -164.615 -3.18998 -174.204
lowerback -8.62003 15.39 13.244
upperback -14.1186 17.5767 2.04089
thorax -7.49229 6.47787 -3.60008
lowerneck -4.8731 -18.8284 -5.05123
upperneck 11.7114 -25.8396 1.72922
head 5.18083 -12.9557 -0.442594
rclavicle 4.37326e-014 7.79236e-014
rhumerus 101.686 30.1977 -53.0722
rradius 81.5485
rwrist 9.53806
rhand -49.2837 40.8483
rfingers 7.12502
rthumb -21.9014 12.0679
lclavicle 4.37326e-014 7.79236e-014
lhumerus 64.8118 20.2336 64.1175
lradius 89.244
lwrist 3.20516
lhand -36.9106 14.8541
lfingers 7.12502
lthumb -189.988 -135.403
rfemur 11.4245 -8.75503 21.9257
rtibia 18.3047
rfoot 26.8179 -28.0708
rtoes 20.3422
lfemur -27.7007 -15.8785 -13.5954
ltibia 23.0305
lfoot 53.2673 -33.6556
ltoes 46.6507
343
root -6.55262 18.0226 -4.00775 -164.58 -2.97127 -174.257
lowerback -8.44919 15.4182 13.3762
upperback -14.1752 17.6341 2.01949
thorax -7.6011 6.47532 -3.71532
lowerneck -4.03865 -18.6982 -5.14155
upperneck 11.2483 -25.6844 1.81453
head 4.92197 -12.9042 -0.281915
rclavicle -5.56597e-015 2.38542e-014
rhumerus 100.84 30.1913 -53.5565
rradius 80.9168
rwrist 9.25463
rhand -49.5265 40.021
rfingers 7.12502
rthumb -22.1346 11.268
lclavicle -5.56597e-015 2.38542e-014
lhumerus 64.4465 19.584 63.6977
lradius 88.0697
lwrist 3.52165
lhand -36.4903 14.7803
lfingers 7.12502
lthumb -189.583 -135.458
rfemur 11.4785 -8.97187 21.7098
rtibia 18.3081
rfoot 26.1815 -28.3945
rtoes 21.6442
lfemur -27.7604 -15.9639 -13.6718
ltibia 23.0642
lfoot 52.812 -33.7455
ltoes 46.2515
344
root -6.5549 18.0202 -3.99807 -164.572 -2.7591 -174.245
lowerback -8.33077 15.3676 13.4381
upperback -14.0688 17.5978 2.09191
thorax -7.55448 6.46815 -3.69146
lowerneck -3.77746 -18.5837 -5.09823
upperneck 10.9094 -25.5098 1.83262
head 4.76615 -12.8217 -0.217538
rclavicle 4.17448e-014 -1.11319e-014
rhumerus 100.27 30.2543 -54.095
rradius 80.2432
rwrist 8.81488
rhand -49.2313 39.7004
rfingers 7.12502
rthumb -21.8511 10.9141
lclavicle 4.17448e-014 -1.11319e-014
lhumerus 64.2845 19.1661 63.2968
lradius 86.8658
lwrist 3.85262
lhand -35.9364 14.8854
lfingers 7.12502
lthumb -189.048 -135.329
rfemur 11.5051 -9.21995 21.5947
rtibia 18.3267
rfoot 26.199 -27.985
rtoes 21.1643
lfemur -27.7896 -15.9903 -13.6408
ltibia 23.0853
lfoot 52.6319 -33.4016
ltoes 46.2473
345
root -6.5501 18.0191 -3.98981 -164.556 -2.61686 -174.203
lowerback -8.27654 15.2277 13.3787
upperback -12.6477 17.6977 1.69097
thorax -5.82581 6.87628 -3.9237
lowerneck -10.84 -19.0363 -1.80453
upperneck 12.7095 -25.8777 0.102798
head 5.81106 -12.7726 -1.83555
rclavicle -1.90038e-013 -7.79236e-014
rhumerus 101.773 27.6275 -53.591
rradius 79.7366
rwrist 8.6176
rhand -49.078 39.0256
rfingers 7.12502
rthumb -21.7039 10.2222
lclavicle -1.90038e-013 -7.79236e-014
lhumerus 67.7246 19.0555 64.165
lradius 85.6005
lwrist 4.12285
lhand -35.4468 14.7603
lfingers 7.12502
lthumb -188.576 -135.434
rfemur 11.4584 -9.31335 21.6403
rtibia 18.3987
rfoot 26.2465 -27.53
rtoes 19.8604
lfemur -27.8127 -15.9341 -13.5412
ltibia 23.0707
lfoot 52.7113 -32.8418
ltoes 46.4426
